<?xml version="1.0" encoding="UTF-8"?>
<svg id="Layer_1" data-name="Layer 1" xmlns="http://www.w3.org/2000/svg" viewBox="0 0 576 576.12">
  <defs>
    <style>
      .cls-1 {
        fill: #facc15;
        stroke-width: 0px;
      }
    </style>
  </defs>
  <path class="cls-1" d="M575.2,286.62c-3.9-23.3-25.2-39.2-48.4-36.9l-1.6.2h-.4l-15.7,1.8-1.1.1c-2.4.3-4.8.5-7.2.6-38,1.9-73.5-16.3-94.5-46.3h0c-.2-.3-.4-.6-.7-1l-.1-.1h0c-30.9-43.9-85.4-68.7-141.9-59.1-78.4,13.3-131.2,87.6-117.9,166,13.3,78.4,87.6,131.2,166,117.9,46.1-7.8,83.4-36.8,103.6-75.3h0c.2-.4.4-.9.7-1.3,0-.1.1-.1.1-.2,5.1-9.3,14.3-16.3,25.6-18.3,19.6-3.3,38.2,9.9,41.5,29.5,1.3,7.7.1,15.2-3.1,21.8-.2.5-.5,1-.8,1.5-30.2,57.9-86.2,101.5-155.6,113.3-117.4,20.1-228.9-59.1-248.8-176.7-19.9-117.6,59.3-229.1,176.9-249.1,51.5-8.7,101.9,1.6,143.9,25.8,27,15.6,50.6,36.9,68.7,62.7.3.4.5.7.8,1.1l.1.1c7.8,10.6,21.2,16.6,35.1,14.2,19.6-3.3,32.8-21.9,29.5-41.5-.9-5-2.7-9.7-5.3-13.7h0c-.4-.5-.7-1.1-1.1-1.6-21-29.8-47.4-55.2-77.5-74.9C387.3,8.72,314.5-8.58,239.9,4.12,83.1,30.72-22.5,179.32,4.1,336.22c26.6,156.8,175.2,262.4,332.1,235.8,137.8-23.4,236-141,239.8-275.6v-2.2c-.2-2.5-.4-5.1-.8-7.6ZM299.9,359.02c-39.2,6.6-76.4-19.8-83-59s19.8-76.4,59-83,76.4,19.8,83,59c6.6,39.2-19.8,76.3-59,83Z"/>
</svg>