<?xml version="1.0" encoding="utf-8"?>
<!-- Generator: Adobe Illustrator 28.3.0, SVG Export Plug-In . SVG Version: 6.00 Build 0)  -->
<svg version="1.1" id="Layer_1" xmlns="http://www.w3.org/2000/svg" xmlns:xlink="http://www.w3.org/1999/xlink" x="0px" y="0px"
	 viewBox="0 0 576 576.1" style="enable-background:new 0 0 576 576.1;" xml:space="preserve">
<style type="text/css">
	.st0{fill:#F2AD0D;}
</style>
<path class="st0" d="M575.2,286.6c-3.9-23.3-25.2-39.2-48.4-36.9l-1.6,0.2h-0.4l-15.7,1.8l-1.1,0.1c-2.4,0.3-4.8,0.5-7.2,0.6
	c-38,1.9-73.5-16.3-94.5-46.3l0,0c-0.2-0.3-0.4-0.6-0.7-1l-0.1-0.1l0,0c-30.9-43.9-85.4-68.7-141.9-59.1
	c-78.4,13.3-131.2,87.6-117.9,166s87.6,131.2,166,117.9c46.1-7.8,83.4-36.8,103.6-75.3l0,0c0.2-0.4,0.4-0.9,0.7-1.3
	c0-0.1,0.1-0.1,0.1-0.2c5.1-9.3,14.3-16.3,25.6-18.3c19.6-3.3,38.2,9.9,41.5,29.5c1.3,7.7,0.1,15.2-3.1,21.8c-0.2,0.5-0.5,1-0.8,1.5
	c-30.2,57.9-86.2,101.5-155.6,113.3C206.3,520.9,94.8,441.7,74.9,324.1S134.2,95,251.8,75c51.5-8.7,101.9,1.6,143.9,25.8
	c27,15.6,50.6,36.9,68.7,62.7c0.3,0.4,0.5,0.7,0.8,1.1l0.1,0.1c7.8,10.6,21.2,16.6,35.1,14.2c19.6-3.3,32.8-21.9,29.5-41.5
	c-0.9-5-2.7-9.7-5.3-13.7l0,0c-0.4-0.5-0.7-1.1-1.1-1.6c-21-29.8-47.4-55.2-77.5-74.9C387.3,8.7,314.5-8.6,239.9,4.1
	C83.1,30.7-22.5,179.3,4.1,336.2C30.7,493,179.3,598.6,336.2,572C474,548.6,572.2,431,576,296.4v-2.2
	C575.8,291.7,575.6,289.1,575.2,286.6z M299.9,359c-39.2,6.6-76.4-19.8-83-59s19.8-76.4,59-83s76.4,19.8,83,59
	S339.1,352.3,299.9,359z"/>
</svg>
